M48
; DRILL file {KiCad 9.0.1} date 2025-05-21T21:12:31-0600
; FORMAT={-:-/ absolute / metric / decimal}
; #@! TF.CreationDate,2025-05-21T21:12:31-06:00
; #@! TF.GenerationSoftware,Kicad,Pcbnew,9.0.1
; #@! TF.FileFunction,Plated,1,2,PTH
FMAT,2
METRIC
; #@! TA.AperFunction,Plated,PTH,ViaDrill
T1C0.965
; #@! TA.AperFunction,Plated,PTH,ComponentDrill
T2C1.000
; #@! TA.AperFunction,Plated,PTH,ComponentDrill
T3C1.300
%
G90
G05
T1
X37.129Y-51.404
X37.129Y-76.804
X39.669Y-51.404
X39.669Y-76.804
X42.209Y-51.404
X42.209Y-76.804
X44.749Y-51.404
X44.749Y-76.804
X47.289Y-51.404
X47.289Y-76.804
X49.829Y-51.404
X49.829Y-76.804
X52.369Y-51.404
X52.369Y-76.804
X54.909Y-51.404
X54.909Y-76.804
X57.449Y-51.404
X57.449Y-76.804
X59.989Y-51.404
X59.989Y-76.804
X62.529Y-51.404
X62.529Y-76.804
X65.069Y-51.404
X65.069Y-76.804
X67.609Y-51.404
X67.609Y-76.804
X70.149Y-51.404
X70.149Y-76.804
X72.689Y-51.404
X72.689Y-76.804
X131.109Y-48.864
X131.109Y-61.564
X133.649Y-48.864
X133.649Y-51.404
X133.649Y-53.944
X133.649Y-56.484
X133.649Y-59.024
X133.649Y-61.564
T2
X37.132Y-51.394
X37.132Y-76.794
X39.672Y-51.394
X39.672Y-76.794
X42.212Y-51.394
X42.212Y-76.794
X44.752Y-51.394
X44.752Y-76.794
X47.292Y-51.394
X47.292Y-76.794
X49.832Y-51.394
X49.832Y-76.794
X52.372Y-51.394
X52.372Y-76.794
X54.912Y-51.394
X54.912Y-76.794
X57.452Y-51.394
X57.452Y-76.794
X59.992Y-51.394
X59.992Y-76.794
X62.532Y-51.394
X62.532Y-76.794
X65.072Y-51.394
X65.072Y-76.794
X67.612Y-51.394
X67.612Y-76.794
X70.152Y-51.394
X70.152Y-76.794
X72.692Y-51.394
X72.692Y-76.794
X131.112Y-48.854
X131.112Y-61.554
X133.652Y-48.854
X133.652Y-51.394
X133.652Y-53.934
X133.652Y-56.474
X133.652Y-59.014
X133.652Y-61.554
T3
X49.955Y-84.805
X55.035Y-84.805
X67.76Y-43.0
X68.0Y-84.5
X72.84Y-43.0
X73.08Y-84.5
X77.92Y-43.0
X78.16Y-84.5
X83.0Y-43.0
X83.24Y-84.5
M30
