%TF.GenerationSoftware,KiCad,Pcbnew,9.0.1*%
%TF.CreationDate,2025-05-21T21:12:10-06:00*%
%TF.ProjectId,test_Final,74657374-5f46-4696-9e61-6c2e6b696361,rev?*%
%TF.SameCoordinates,Original*%
%TF.FileFunction,Copper,L2,Bot*%
%TF.FilePolarity,Positive*%
%FSLAX46Y46*%
G04 Gerber Fmt 4.6, Leading zero omitted, Abs format (unit mm)*
G04 Created by KiCad (PCBNEW 9.0.1) date 2025-05-21 21:12:10*
%MOMM*%
%LPD*%
G01*
G04 APERTURE LIST*
%TA.AperFunction,NonConductor*%
%ADD10C,0.990600*%
%TD*%
%TA.AperFunction,ComponentPad*%
%ADD11R,1.700000X1.700000*%
%TD*%
%TA.AperFunction,ComponentPad*%
%ADD12C,1.700000*%
%TD*%
%TA.AperFunction,ComponentPad*%
%ADD13R,2.600000X2.600000*%
%TD*%
%TA.AperFunction,ComponentPad*%
%ADD14C,2.600000*%
%TD*%
%TA.AperFunction,ViaPad*%
%ADD15C,0.965210*%
%TD*%
%TA.AperFunction,Conductor*%
%ADD16C,0.609600*%
%TD*%
%TA.AperFunction,Conductor*%
%ADD17C,0.812800*%
%TD*%
G04 APERTURE END LIST*
D10*
X60487200Y-76793900D02*
G75*
G02*
X59496600Y-76793900I-495300J0D01*
G01*
X59496600Y-76793900D02*
G75*
G02*
X60487200Y-76793900I495300J0D01*
G01*
X70647200Y-51393900D02*
G75*
G02*
X69656600Y-51393900I-495300J0D01*
G01*
X69656600Y-51393900D02*
G75*
G02*
X70647200Y-51393900I495300J0D01*
G01*
X45247200Y-76793900D02*
G75*
G02*
X44256600Y-76793900I-495300J0D01*
G01*
X44256600Y-76793900D02*
G75*
G02*
X45247200Y-76793900I495300J0D01*
G01*
X134147200Y-56473900D02*
G75*
G02*
X133156600Y-56473900I-495300J0D01*
G01*
X133156600Y-56473900D02*
G75*
G02*
X134147200Y-56473900I495300J0D01*
G01*
X47787200Y-51393900D02*
G75*
G02*
X46796600Y-51393900I-495300J0D01*
G01*
X46796600Y-51393900D02*
G75*
G02*
X47787200Y-51393900I495300J0D01*
G01*
X40167200Y-51393900D02*
G75*
G02*
X39176600Y-51393900I-495300J0D01*
G01*
X39176600Y-51393900D02*
G75*
G02*
X40167200Y-51393900I495300J0D01*
G01*
X63027200Y-51393900D02*
G75*
G02*
X62036600Y-51393900I-495300J0D01*
G01*
X62036600Y-51393900D02*
G75*
G02*
X63027200Y-51393900I495300J0D01*
G01*
X37627200Y-76793900D02*
G75*
G02*
X36636600Y-76793900I-495300J0D01*
G01*
X36636600Y-76793900D02*
G75*
G02*
X37627200Y-76793900I495300J0D01*
G01*
X52867200Y-51393900D02*
G75*
G02*
X51876600Y-51393900I-495300J0D01*
G01*
X51876600Y-51393900D02*
G75*
G02*
X52867200Y-51393900I495300J0D01*
G01*
X57947200Y-76793900D02*
G75*
G02*
X56956600Y-76793900I-495300J0D01*
G01*
X56956600Y-76793900D02*
G75*
G02*
X57947200Y-76793900I495300J0D01*
G01*
X131607200Y-61553900D02*
G75*
G02*
X130616600Y-61553900I-495300J0D01*
G01*
X130616600Y-61553900D02*
G75*
G02*
X131607200Y-61553900I495300J0D01*
G01*
X73187200Y-76793900D02*
G75*
G02*
X72196600Y-76793900I-495300J0D01*
G01*
X72196600Y-76793900D02*
G75*
G02*
X73187200Y-76793900I495300J0D01*
G01*
X55407200Y-76793900D02*
G75*
G02*
X54416600Y-76793900I-495300J0D01*
G01*
X54416600Y-76793900D02*
G75*
G02*
X55407200Y-76793900I495300J0D01*
G01*
X70647200Y-76793900D02*
G75*
G02*
X69656600Y-76793900I-495300J0D01*
G01*
X69656600Y-76793900D02*
G75*
G02*
X70647200Y-76793900I495300J0D01*
G01*
X42707200Y-76793900D02*
G75*
G02*
X41716600Y-76793900I-495300J0D01*
G01*
X41716600Y-76793900D02*
G75*
G02*
X42707200Y-76793900I495300J0D01*
G01*
X52867200Y-76793900D02*
G75*
G02*
X51876600Y-76793900I-495300J0D01*
G01*
X51876600Y-76793900D02*
G75*
G02*
X52867200Y-76793900I495300J0D01*
G01*
X37627200Y-51393900D02*
G75*
G02*
X36636600Y-51393900I-495300J0D01*
G01*
X36636600Y-51393900D02*
G75*
G02*
X37627200Y-51393900I495300J0D01*
G01*
X68107200Y-51393900D02*
G75*
G02*
X67116600Y-51393900I-495300J0D01*
G01*
X67116600Y-51393900D02*
G75*
G02*
X68107200Y-51393900I495300J0D01*
G01*
X73187200Y-51393900D02*
G75*
G02*
X72196600Y-51393900I-495300J0D01*
G01*
X72196600Y-51393900D02*
G75*
G02*
X73187200Y-51393900I495300J0D01*
G01*
X47787200Y-76793900D02*
G75*
G02*
X46796600Y-76793900I-495300J0D01*
G01*
X46796600Y-76793900D02*
G75*
G02*
X47787200Y-76793900I495300J0D01*
G01*
X134147200Y-59013900D02*
G75*
G02*
X133156600Y-59013900I-495300J0D01*
G01*
X133156600Y-59013900D02*
G75*
G02*
X134147200Y-59013900I495300J0D01*
G01*
X68107200Y-76793900D02*
G75*
G02*
X67116600Y-76793900I-495300J0D01*
G01*
X67116600Y-76793900D02*
G75*
G02*
X68107200Y-76793900I495300J0D01*
G01*
X134147200Y-61553900D02*
G75*
G02*
X133156600Y-61553900I-495300J0D01*
G01*
X133156600Y-61553900D02*
G75*
G02*
X134147200Y-61553900I495300J0D01*
G01*
X60487200Y-51393900D02*
G75*
G02*
X59496600Y-51393900I-495300J0D01*
G01*
X59496600Y-51393900D02*
G75*
G02*
X60487200Y-51393900I495300J0D01*
G01*
X57947200Y-51393900D02*
G75*
G02*
X56956600Y-51393900I-495300J0D01*
G01*
X56956600Y-51393900D02*
G75*
G02*
X57947200Y-51393900I495300J0D01*
G01*
X45247200Y-51393900D02*
G75*
G02*
X44256600Y-51393900I-495300J0D01*
G01*
X44256600Y-51393900D02*
G75*
G02*
X45247200Y-51393900I495300J0D01*
G01*
X40167200Y-76793900D02*
G75*
G02*
X39176600Y-76793900I-495300J0D01*
G01*
X39176600Y-76793900D02*
G75*
G02*
X40167200Y-76793900I495300J0D01*
G01*
X50327200Y-76793900D02*
G75*
G02*
X49336600Y-76793900I-495300J0D01*
G01*
X49336600Y-76793900D02*
G75*
G02*
X50327200Y-76793900I495300J0D01*
G01*
X63027200Y-76793900D02*
G75*
G02*
X62036600Y-76793900I-495300J0D01*
G01*
X62036600Y-76793900D02*
G75*
G02*
X63027200Y-76793900I495300J0D01*
G01*
X42707200Y-51393900D02*
G75*
G02*
X41716600Y-51393900I-495300J0D01*
G01*
X41716600Y-51393900D02*
G75*
G02*
X42707200Y-51393900I495300J0D01*
G01*
X134147200Y-53933900D02*
G75*
G02*
X133156600Y-53933900I-495300J0D01*
G01*
X133156600Y-53933900D02*
G75*
G02*
X134147200Y-53933900I495300J0D01*
G01*
X55407200Y-51393900D02*
G75*
G02*
X54416600Y-51393900I-495300J0D01*
G01*
X54416600Y-51393900D02*
G75*
G02*
X55407200Y-51393900I495300J0D01*
G01*
X134147200Y-51393900D02*
G75*
G02*
X133156600Y-51393900I-495300J0D01*
G01*
X133156600Y-51393900D02*
G75*
G02*
X134147200Y-51393900I495300J0D01*
G01*
X65567200Y-76793900D02*
G75*
G02*
X64576600Y-76793900I-495300J0D01*
G01*
X64576600Y-76793900D02*
G75*
G02*
X65567200Y-76793900I495300J0D01*
G01*
X50327200Y-51393900D02*
G75*
G02*
X49336600Y-51393900I-495300J0D01*
G01*
X49336600Y-51393900D02*
G75*
G02*
X50327200Y-51393900I495300J0D01*
G01*
X131607200Y-48853900D02*
G75*
G02*
X130616600Y-48853900I-495300J0D01*
G01*
X130616600Y-48853900D02*
G75*
G02*
X131607200Y-48853900I495300J0D01*
G01*
X134147200Y-48853900D02*
G75*
G02*
X133156600Y-48853900I-495300J0D01*
G01*
X133156600Y-48853900D02*
G75*
G02*
X134147200Y-48853900I495300J0D01*
G01*
X65567200Y-51393900D02*
G75*
G02*
X64576600Y-51393900I-495300J0D01*
G01*
X64576600Y-51393900D02*
G75*
G02*
X65567200Y-51393900I495300J0D01*
G01*
D11*
%TO.P,REF\u002A\u002A,1*%
%TO.N,N/C*%
X72691900Y-51393900D03*
D12*
%TO.P,REF\u002A\u002A,2*%
X70151900Y-51393900D03*
%TO.P,REF\u002A\u002A,3*%
X67611900Y-51393900D03*
%TO.P,REF\u002A\u002A,4*%
X65071900Y-51393900D03*
%TO.P,REF\u002A\u002A,5*%
X62531900Y-51393900D03*
%TO.P,REF\u002A\u002A,6*%
X59991900Y-51393900D03*
%TO.P,REF\u002A\u002A,7*%
X57451900Y-51393900D03*
%TO.P,REF\u002A\u002A,8*%
X54911900Y-51393900D03*
%TO.P,REF\u002A\u002A,9*%
X52371900Y-51393900D03*
%TO.P,REF\u002A\u002A,10*%
X49831900Y-51393900D03*
%TO.P,REF\u002A\u002A,11*%
X47291900Y-51393900D03*
%TO.P,REF\u002A\u002A,12*%
X44751900Y-51393900D03*
%TO.P,REF\u002A\u002A,13*%
X42211900Y-51393900D03*
%TO.P,REF\u002A\u002A,14*%
X39671900Y-51393900D03*
%TO.P,REF\u002A\u002A,15*%
X37131900Y-51393900D03*
%TD*%
D11*
%TO.P,REF\u002A\u002A,1*%
%TO.N,N/C*%
X131111900Y-61553900D03*
%TD*%
D13*
%TO.P,REF\u002A\u002A,1*%
%TO.N,N/C*%
X49955000Y-84805000D03*
D14*
%TO.P,REF\u002A\u002A,2*%
X55035000Y-84805000D03*
%TD*%
D13*
%TO.P,REF\u002A\u002A,1*%
%TO.N,N/C*%
X68000000Y-84500000D03*
D14*
%TO.P,REF\u002A\u002A,2*%
X73080000Y-84500000D03*
%TO.P,REF\u002A\u002A,3*%
X78160000Y-84500000D03*
%TO.P,REF\u002A\u002A,4*%
X83240000Y-84500000D03*
%TD*%
D11*
%TO.P,REF\u002A\u002A,1*%
%TO.N,N/C*%
X133651900Y-48853900D03*
D12*
%TO.P,REF\u002A\u002A,2*%
X133651900Y-51393900D03*
%TO.P,REF\u002A\u002A,3*%
X133651900Y-53933900D03*
%TO.P,REF\u002A\u002A,4*%
X133651900Y-56473900D03*
%TO.P,REF\u002A\u002A,5*%
X133651900Y-59013900D03*
%TO.P,REF\u002A\u002A,6*%
X133651900Y-61553900D03*
%TD*%
D11*
%TO.P,REF\u002A\u002A,1*%
%TO.N,N/C*%
X37131900Y-76793900D03*
D12*
%TO.P,REF\u002A\u002A,2*%
X39671900Y-76793900D03*
%TO.P,REF\u002A\u002A,3*%
X42211900Y-76793900D03*
%TO.P,REF\u002A\u002A,4*%
X44751900Y-76793900D03*
%TO.P,REF\u002A\u002A,5*%
X47291900Y-76793900D03*
%TO.P,REF\u002A\u002A,6*%
X49831900Y-76793900D03*
%TO.P,REF\u002A\u002A,7*%
X52371900Y-76793900D03*
%TO.P,REF\u002A\u002A,8*%
X54911900Y-76793900D03*
%TO.P,REF\u002A\u002A,9*%
X57451900Y-76793900D03*
%TO.P,REF\u002A\u002A,10*%
X59991900Y-76793900D03*
%TO.P,REF\u002A\u002A,11*%
X62531900Y-76793900D03*
%TO.P,REF\u002A\u002A,12*%
X65071900Y-76793900D03*
%TO.P,REF\u002A\u002A,13*%
X67611900Y-76793900D03*
%TO.P,REF\u002A\u002A,14*%
X70151900Y-76793900D03*
%TO.P,REF\u002A\u002A,15*%
X72691900Y-76793900D03*
%TD*%
D11*
%TO.P,REF\u002A\u002A,1*%
%TO.N,N/C*%
X131111900Y-48853900D03*
%TD*%
D13*
%TO.P,REF\u002A\u002A,1*%
%TO.N,N/C*%
X83000000Y-43000000D03*
D14*
%TO.P,REF\u002A\u002A,2*%
X77920000Y-43000000D03*
%TO.P,REF\u002A\u002A,3*%
X72840000Y-43000000D03*
%TO.P,REF\u002A\u002A,4*%
X67760000Y-43000000D03*
%TD*%
D15*
%TO.N,*%
X42209360Y-51404060D03*
X54909360Y-51404060D03*
X131109360Y-48864060D03*
X70149360Y-76804060D03*
X49829360Y-51404060D03*
X37129360Y-51404060D03*
X133649360Y-59024060D03*
X49829360Y-76804060D03*
X59989360Y-51404060D03*
X133649360Y-51404060D03*
X57449360Y-76804060D03*
X131109360Y-61564060D03*
X72689360Y-51404060D03*
X52369360Y-51404060D03*
X47289360Y-76804060D03*
X44749360Y-76804060D03*
X67609360Y-51404060D03*
X65069360Y-51404060D03*
X54909360Y-76804060D03*
X62529360Y-76804060D03*
X44749360Y-51404060D03*
X62529360Y-51404060D03*
X70149360Y-51404060D03*
X39669360Y-76804060D03*
X47289360Y-51404060D03*
X67609360Y-76804060D03*
X37129360Y-76804060D03*
X42209360Y-76804060D03*
X59989360Y-76804060D03*
X133649360Y-53944060D03*
X72689360Y-76804060D03*
X39669360Y-51404060D03*
X133649360Y-56484060D03*
X133649360Y-48864060D03*
X133649360Y-61564060D03*
X65069360Y-76804060D03*
X57449360Y-51404060D03*
X52369360Y-76804060D03*
%TD*%
D16*
%TO.N,*%
X77797300Y-79782700D02*
X73080000Y-84500000D01*
X77797300Y-74253900D02*
X77797300Y-79782700D01*
D17*
X35638000Y-88000000D02*
X60500000Y-88000000D01*
D16*
X67637300Y-53959300D02*
X75257300Y-53933900D01*
D17*
X32026500Y-51419300D02*
X29537300Y-46339300D01*
D16*
X90471900Y-81848500D02*
X85891500Y-81848500D01*
D17*
X89000000Y-42000000D02*
X88000000Y-43000000D01*
X32026500Y-51419300D02*
X36649300Y-51393900D01*
D16*
X39671900Y-81671900D02*
X42805000Y-84805000D01*
X59991900Y-69199300D02*
X80286500Y-69199300D01*
X93037300Y-79359300D02*
X90471900Y-81848500D01*
D17*
X60500000Y-88000000D02*
X64195000Y-84305000D01*
X57305000Y-84805000D02*
X55035000Y-84805000D01*
X35285800Y-38000000D02*
X88000000Y-38000000D01*
D16*
X57451900Y-76311300D02*
X57477300Y-71713900D01*
D17*
X89000000Y-39000000D02*
X89000000Y-42000000D01*
D16*
X42211900Y-64093900D02*
X90471900Y-64093900D01*
X80286500Y-69199300D02*
X82851900Y-71713900D01*
X62506500Y-71713900D02*
X75257300Y-71713900D01*
X62531900Y-50911300D02*
X62531900Y-48468100D01*
X65402100Y-51749500D02*
X67637300Y-53959300D01*
X93037300Y-66684700D02*
X93037300Y-79359300D01*
D17*
X62750000Y-85750000D02*
X58250000Y-85750000D01*
D16*
X82851900Y-79808100D02*
X78160000Y-84500000D01*
D17*
X64195000Y-84305000D02*
X68380000Y-84305000D01*
D16*
X57477300Y-71713900D02*
X59991900Y-69199300D01*
X39646500Y-66684700D02*
X42211900Y-64093900D01*
X90471900Y-64093900D02*
X93037300Y-66684700D01*
X39671900Y-76793900D02*
X39646500Y-66684700D01*
X77920000Y-51271200D02*
X77920000Y-43000000D01*
X59991900Y-76311300D02*
X59991900Y-74279300D01*
X77920000Y-51271200D02*
X75257300Y-53933900D01*
X39671900Y-77276500D02*
X39671900Y-81671900D01*
D17*
X88000000Y-38000000D02*
X89000000Y-39000000D01*
D16*
X64000000Y-47000000D02*
X68840000Y-47000000D01*
X75257300Y-71713900D02*
X77797300Y-74253900D01*
D17*
X29537300Y-43748500D02*
X35285800Y-38000000D01*
X29537300Y-53908500D02*
X29486500Y-81848500D01*
D16*
X68840000Y-47000000D02*
X72840000Y-43000000D01*
D17*
X58250000Y-85750000D02*
X57305000Y-84805000D01*
D16*
X59991900Y-74279300D02*
X62506500Y-71713900D01*
X82851900Y-71713900D02*
X82851900Y-79808100D01*
D17*
X29486500Y-81848500D02*
X35638000Y-88000000D01*
X32026500Y-51419300D02*
X29537300Y-53908500D01*
D16*
X85891500Y-81848500D02*
X83240000Y-84500000D01*
D17*
X88000000Y-43000000D02*
X83000000Y-43000000D01*
X29537300Y-46339300D02*
X29537300Y-43748500D01*
D16*
X62531900Y-48468100D02*
X64000000Y-47000000D01*
X42805000Y-84805000D02*
X49955000Y-84805000D01*
%TD*%
M02*
